<?xml version="1.0" ?><svg data-name="Layer 2" id="Layer_2" viewBox="0 0 32 32" xmlns="http://www.w3.org/2000/svg"><title/><path d="M16,8.53h0a.93.93,0,1,1,.94-.93A.93.93,0,0,1,16,8.53Z"/><path d="M17.85,26.27H4.79a.93.93,0,0,1-.93-.93V6.67a.93.93,0,0,1,.93-.93h22.4a.93.93,0,0,1,.93.93v2.8H6.66a.93.93,0,0,0,0,1.87H28.13V16A.93.93,0,0,0,30,16V6.67a2.8,2.8,0,0,0-2.8-2.8H4.79A2.8,2.8,0,0,0,2,6.67V25.33a2.8,2.8,0,0,0,2.8,2.8H17.85a.93.93,0,0,0,0-1.87Z"/><path d="M29.07,20.66H27.59l.27-.27a.93.93,0,0,0-1.32-1.32l-1.21,1.21-1.2-1.2A.93.93,0,0,0,22.8,20.4l.27.27H21.61a.93.93,0,0,0-.93.93v5.6a.93.93,0,0,0,.93.93h7.47A.93.93,0,0,0,30,27.2V21.6A.93.93,0,0,0,29.07,20.66Zm-6.53,1.87h1.85v3.73H22.54Zm5.6,3.73H26.26V22.53h1.88Z"/><path d="M11.33,13.19a.93.93,0,0,0-.93-.93H6.66a.93.93,0,0,0-.93.93v3.73a.93.93,0,0,0,.93.93H10.4a.93.93,0,0,0,.93-.93ZM9.46,16H7.6V14.13H9.46Z"/><path d="M10.4,18.8H6.66a.93.93,0,0,0-.93.93v3.73a.93.93,0,0,0,.93.93H10.4a.93.93,0,0,0,.93-.93V19.73A.93.93,0,0,0,10.4,18.8Zm-.93,3.73H7.6V20.66H9.46Z"/><path d="M17.87,12.26H14.13a.93.93,0,0,0-.93.93v3.73a.93.93,0,0,0,.93.93h3.73a.93.93,0,0,0,.93-.93V13.19A.93.93,0,0,0,17.87,12.26ZM16.93,16H15.07V14.13h1.87Z"/><path d="M21.6,16.93a.93.93,0,0,0,.93-.93V14.13H24.4V16a.93.93,0,0,0,1.87,0v-2.8a.93.93,0,0,0-.93-.93H21.6a.93.93,0,0,0-.93.93V16A.93.93,0,0,0,21.6,16.93Z"/><path d="M17.87,18.8H14.13a.93.93,0,0,0-.93.93v3.73a.93.93,0,0,0,.93.93h3.73a.93.93,0,0,0,.93-.93V19.73A.93.93,0,0,0,17.87,18.8Zm-.93,3.73H15.07V20.66h1.87Z"/></svg>