<?xml version="1.0" ?><!DOCTYPE svg  PUBLIC '-//W3C//DTD SVG 1.1//EN'  'http://www.w3.org/Graphics/SVG/1.1/DTD/svg11.dtd'><svg enable-background="new 0 0 512 512" height="512" id="Layer_1" version="1.1" viewBox="0 0 512 512" width="512" xml:space="preserve" xmlns="http://www.w3.org/2000/svg" xmlns:xlink="http://www.w3.org/1999/xlink"><path d="M255.994,57.339c-109.543,0-198.655,89.123-198.655,198.667c0,109.542,89.111,198.654,198.655,198.654  c109.549,0,198.666-89.111,198.666-198.654C454.66,146.462,365.543,57.339,255.994,57.339z M255.994,423.324  c-92.259,0-167.319-75.059-167.319-167.318c0-92.271,75.06-167.331,167.319-167.331c92.271,0,167.33,75.06,167.33,167.331  C423.324,348.265,348.266,423.324,255.994,423.324z"/><path d="M277.33,190.101c19.613,0,34.643,5.21,51.197,12.254l4.287-34.641c-15.633-7.659-35.871-11.338-55.484-11.338  c-46.593,0-83.073,27.898-94.104,72.96H160.84l-8.588,24.823h27.597v4.294c0,5.826,0.308,11.65,0.917,16.861h-28.2l-9.191,26.367  h44.134c14.715,36.787,48.439,58.848,89.822,58.848c19.613,0,39.852-3.678,55.484-11.338l-4.287-34.641  c-16.555,7.057-31.584,12.268-51.197,12.268c-22.687,0-38.319-9.203-47.522-25.137h56.104l9.197-26.367h-73.877  c-0.929-5.211-1.23-10.723-1.23-16.861v-4.294h71.73l9.203-24.823h-76.941C231.34,205.419,248.516,190.101,277.33,190.101z"/></svg>