<?xml version="1.0" ?><!DOCTYPE svg  PUBLIC '-//W3C//DTD SVG 1.1//EN'  'http://www.w3.org/Graphics/SVG/1.1/DTD/svg11.dtd'><svg enable-background="new 0 0 48 48" height="48px" id="Layer_1" version="1.1" viewBox="0 0 48 48" width="48px" xml:space="preserve" xmlns="http://www.w3.org/2000/svg" xmlns:xlink="http://www.w3.org/1999/xlink"><path d="M45.5,36.415h-43c-0.275,0-0.5,0.225-0.5,0.5v2.836c0,0.275,0.225,0.5,0.5,0.5h43c0.277,0,0.5-0.225,0.5-0.5v-2.836  C46,36.639,45.777,36.415,45.5,36.415z M45,39.251H3v-1.836h42V39.251z"/><path d="M4.672,33.084h38.656c0.277,0,0.5-0.224,0.5-0.5v-2.835c0-0.275-0.223-0.5-0.5-0.5H4.672c-0.277,0-0.5,0.225-0.5,0.5v2.835  C4.172,32.86,4.394,33.084,4.672,33.084z M5.172,30.249h37.656v1.834H5.172V30.249z"/><path d="M6.844,25.917h34.314c0.275,0,0.5-0.225,0.5-0.5v-2.836c0-0.275-0.225-0.5-0.5-0.5H6.844c-0.277,0-0.5,0.225-0.5,0.5v2.836  C6.344,25.694,6.566,25.917,6.844,25.917z M7.344,23.081h33.314v1.836H7.344V23.081z"/><path d="M9.016,18.751h29.97c0.275,0,0.5-0.225,0.5-0.5v-2.836c0-0.275-0.225-0.5-0.5-0.5H9.016c-0.277,0-0.5,0.225-0.5,0.5v2.836  C8.516,18.526,8.738,18.751,9.016,18.751z M9.516,15.915h28.97v1.836H9.516V15.915z"/><path d="M11.186,11.584h25.628c0.275,0,0.5-0.225,0.5-0.5V8.249c0-0.275-0.225-0.5-0.5-0.5H11.186c-0.275,0-0.5,0.225-0.5,0.5v2.835  C10.686,11.359,10.91,11.584,11.186,11.584z M11.686,8.748h24.628v1.834H11.686V8.748z"/></svg>