<?xml version="1.0" ?><svg viewBox="0 0 64 64" xmlns="http://www.w3.org/2000/svg"><g id="Leadership"><path d="M58.6245,24.612c-2.72,1.886-7.1578,4.4393-11.2433,4.4393-3.4432,0-7.1913-2.7049-9.73-4.145l-1.7056,1.627A4.3227,4.3227,0,0,0,34.67,30.4247L37.3406,45.476C47.0437,50.9848,56.5854,47.9428,59.95,46.53a2.0881,2.0881,0,0,0,1.2721-1.93V25.9644A1.6508,1.6508,0,0,0,58.6245,24.612Z"/><path d="M32.0115,30.8964a7.0319,7.0319,0,0,1,2.07-6.3167l14.5-13.8307a1.5983,1.5983,0,0,0,.0311-2.2823l-3.464-3.4895a1.5979,1.5979,0,0,0-2.2551-.013l-16.84,16.7579a3.3755,3.3755,0,0,1-2.4874,1.0957h-.0322a3.3844,3.3844,0,0,1-2.501-1.1445l-2.76-3.1336h-3.195a7.3051,7.3051,0,0,0-7.1871,5.9972L5.623,37.0007a2.1732,2.1732,0,0,0,2.1382,2.5622H11.655l2.0156-11.0351a1.35,1.35,0,1,1,2.6563.4844L14.2151,40.5744l-3.4878,19.95a1.2565,1.2565,0,0,0,1.2378,1.4726h6.2727A1.2566,1.2566,0,0,0,19.48,60.9335l3.1369-20.2014a1.3568,1.3568,0,0,1,2.68-.0117L28.62,60.9444a1.2564,1.2564,0,0,0,1.24,1.0526H36.031a1.2564,1.2564,0,0,0,1.2371-1.4758Z"/><path d="M19.719,16.3889v.0086L22.91,20.0209a.9206.9206,0,0,0,.6562.2969.8648.8648,0,0,0,.6436-.2832l.2046-.2235h0l3.5977-3.7126a.8589.8589,0,0,1,.0117-.3013,3.01,3.01,0,0,1,.8283-1.4989,7.1435,7.1435,0,1,0-10.0559-.015A2.9825,2.9825,0,0,1,19.719,16.3889Z"/></g></svg>