<svg id="Capa_1" enable-background="new 0 0 511.993 511.993" height="512" viewBox="0 0 511.993 511.993" width="512" xmlns="http://www.w3.org/2000/svg"><g><path d="m478.198 174.708c4.819-6.738 3.252-17.113-3.486-21.918l-210-150c-5.215-3.721-12.217-3.721-17.432 0l-96.284 68.774v-26.571c0-8.291-6.709-15-15-15s-15 6.709-15 15v48.001l-83.716 59.797c-6.738 4.805-8.306 15.18-3.486 21.918s14.18 8.32 20.918 3.486l201.284-144.775 201.284 144.774c6.702 4.804 16.083 3.284 20.918-3.486z"/><path d="m465.996 511.993c8.291 0 15-6.709 15-15v-211c0-8.291-6.709-15-15-15s-15 6.709-15 15v75h-30v90h30v46c0 8.291 6.709 15 15 15z"/><path d="m45.996 210.993c-8.291 0-15 6.709-15 15v271c0 8.291 6.709 15 15 15s15-6.709 15-15v-46h90v-90h-90v-135c0-8.291-6.709-15-15-15z"/><path d="m195.996 300.993c-8.291 0-15 6.709-15 15v135h210v-105c0-24.814-20.186-45-45-45z"/><path d="m150.996 315.993c0-18.893 11.732-35.041 28.27-41.699-5.175-19.142-22.491-33.301-43.27-33.301-24.853 0-45 20.147-45 45s20.147 45 45 45h15z"/></g></svg>
