<svg viewBox="0 0 100 100" xmlns="http://www.w3.org/2000/svg"><g data-name="Calque 2" id="Calque_2"><path d="M72.1,42.53l-3.22-4.35a1.47,1.47,0,0,0-1.2-.61H52.31V34.65h3.33a1.5,1.5,0,0,0,1.5-1.5V24.44a1.5,1.5,0,0,0-1.5-1.5H52.31v-2a1.5,1.5,0,1,0-3,0v2h-16a1.5,1.5,0,0,0-1.2.61L28.9,27.9a1.5,1.5,0,0,0,0,1.78L32.12,34a1.5,1.5,0,0,0,1.2.61h16v2.92h-4a1.5,1.5,0,0,0-1.5,1.5v8.7a1.5,1.5,0,0,0,1.5,1.5h4V75.94H43.94a1.5,1.5,0,0,0,0,3H57.68a1.5,1.5,0,1,0,0-3H52.31V49.27H67.68a1.47,1.47,0,0,0,1.2-.61l3.22-4.35A1.5,1.5,0,0,0,72.1,42.53Zm-18-10.88H34.08L32,28.79l2.11-2.85H54.14Zm-7.28,8.92H66.92L69,43.42l-2.11,2.85H46.86Z"/></g></svg>
